<svg viewBox="308.5167 640.5 452.9665 100" width="5000" height="1103.8343895188718" xmlns="http://www.w3.org/2000/svg" xmlns:xlink="http://www.w3.org/1999/xlink" preserveAspectRatio="none"><defs></defs><style>.aB-kR8Dn70colors-0 {fill:#FFFFFF;fill-opacity:1;}.aD6z1nYkhcolor {fill:#FFFFFF;fill-opacity:1;}.azhorTgdH-0filter-floo {flood-color:#000000;flood-opacity:1;}</style><g opacity="1" transform="rotate(0 308.5167 660.8832)">
<svg width="452.9665" height="59.2336" x="308.5167" y="660.8832" version="1.1" preserveAspectRatio="none" viewBox="2.48 -31.24 240.12 31.4">
  <g transform="matrix(1 0 0 1 0 0)" class="aD6z1nYkhcolor"><path d="M13.32-22.04Q18.04-22.04 21.16-18.44L21.16-18.44Q21.56-18 21.56-17.40L21.56-17.40Q21.56-16.52 20.68-15.92L20.68-15.92Q20.28-15.64 19.76-15.64L19.76-15.64Q18.84-15.64 18.20-16.36L18.20-16.36Q17.20-17.44 16.02-17.94Q14.84-18.44 13.32-18.44L13.32-18.44Q10.24-18.44 8.32-16.38Q6.40-14.32 6.40-10.92L6.40-10.92Q6.40-8.76 7.30-7.06Q8.20-5.36 9.82-4.40Q11.44-3.44 13.52-3.44L13.52-3.44Q16.24-3.44 17.92-4.84L17.92-4.84Q18.68-5.40 19.40-5.40L19.40-5.40Q19.96-5.40 20.44-5.04L20.44-5.04Q21.20-4.40 21.20-3.60L21.20-3.60Q21.20-3 20.72-2.52L20.72-2.52Q17.84 0.16 13.52 0.16L13.52 0.16Q10.36 0.16 7.84-1.28Q5.32-2.72 3.90-5.26Q2.48-7.80 2.48-10.92L2.48-10.92Q2.48-14.12 3.86-16.66Q5.24-19.20 7.72-20.62Q10.20-22.04 13.32-22.04L13.32-22.04Z M38.52-22.08Q41.28-22.08 43.48-20.88Q45.68-19.68 46.92-17.38Q48.16-15.08 48.16-11.84L48.16-11.84L48.16-2Q48.16-1.12 47.58-0.54Q47 0.04 46.12 0.04L46.12 0.04Q45.24 0.04 44.66-0.54Q44.08-1.12 44.08-2L44.08-2L44.08-11.84Q44.08-15.08 42.34-16.74Q40.60-18.40 37.72-18.40L37.72-18.40Q36.04-18.40 34.66-17.72Q33.28-17.04 32.50-15.88Q31.72-14.72 31.72-13.28L31.72-13.28L31.72-2Q31.72-1.12 31.16-0.54Q30.60 0.04 29.68 0.04L29.68 0.04Q28.80 0.04 28.22-0.54Q27.64-1.12 27.64-2L27.64-2L27.64-29.20Q27.64-30.12 28.22-30.68Q28.80-31.24 29.68-31.24L29.68-31.24Q30.60-31.24 31.16-30.68Q31.72-30.12 31.72-29.20L31.72-29.20L31.72-19.40Q33-20.68 34.76-21.38Q36.52-22.08 38.52-22.08L38.52-22.08Z M64.88-22.04Q67.96-22.04 70.46-20.58Q72.96-19.12 74.42-16.58Q75.88-14.04 75.88-10.92L75.88-10.92L75.88-2Q75.88-1.12 75.30-0.54Q74.72 0.04 73.84 0.04L73.84 0.04Q72.96 0.04 72.38-0.54Q71.80-1.12 71.80-2L71.80-2L71.80-3.48Q70.40-1.76 68.40-0.80Q66.40 0.16 64.08 0.16L64.08 0.16Q61.20 0.16 58.86-1.28Q56.52-2.72 55.18-5.26Q53.84-7.80 53.84-10.92L53.84-10.92Q53.84-14.04 55.28-16.58Q56.72-19.12 59.26-20.58Q61.80-22.04 64.88-22.04L64.88-22.04ZM64.88-3.44Q66.88-3.44 68.50-4.42Q70.12-5.40 71.04-7.10Q71.96-8.80 71.96-10.92L71.96-10.92Q71.96-13.04 71.04-14.76Q70.12-16.48 68.50-17.46Q66.88-18.44 64.88-18.44L64.88-18.44Q62.88-18.44 61.26-17.46Q59.64-16.48 58.70-14.76Q57.76-13.04 57.76-10.92L57.76-10.92Q57.76-8.80 58.70-7.10Q59.64-5.40 61.26-4.42Q62.88-3.44 64.88-3.44L64.88-3.44Z M82.36-19.84Q82.36-20.76 82.94-21.32Q83.52-21.88 84.40-21.88L84.40-21.88Q85.32-21.88 85.88-21.32Q86.44-20.76 86.44-19.84L86.44-19.84L86.44-2.04Q86.44-1.16 85.88-0.58Q85.32 0 84.40 0L84.40 0Q83.52 0 82.94-0.58Q82.36-1.16 82.36-2.04L82.36-2.04L82.36-19.84ZM84.40-30.72Q85.48-30.72 86.26-29.94Q87.04-29.16 87.04-28.08L87.04-28.08Q87.04-27 86.26-26.22Q85.48-25.44 84.40-25.44L84.40-25.44Q83.32-25.44 82.54-26.22Q81.76-27 81.76-28.08L81.76-28.08Q81.76-29.16 82.54-29.94Q83.32-30.72 84.40-30.72L84.40-30.72Z M104.92-22.08Q107.68-22.08 109.88-20.88Q112.08-19.68 113.32-17.38Q114.56-15.08 114.56-11.84L114.56-11.84L114.56-2Q114.56-1.12 113.98-0.54Q113.40 0.04 112.52 0.04L112.52 0.04Q111.64 0.04 111.06-0.54Q110.48-1.12 110.48-2L110.48-2L110.48-11.84Q110.48-15.08 108.74-16.74Q107-18.40 104.12-18.40L104.12-18.40Q102.44-18.40 101.06-17.72Q99.68-17.04 98.90-15.88Q98.12-14.72 98.12-13.28L98.12-13.28L98.12-2Q98.12-1.12 97.56-0.54Q97 0.04 96.08 0.04L96.08 0.04Q95.20 0.04 94.62-0.54Q94.04-1.12 94.04-2L94.04-2L94.04-19.84Q94.04-20.76 94.62-21.32Q95.20-21.88 96.08-21.88L96.08-21.88Q97-21.88 97.56-21.32Q98.12-20.76 98.12-19.84L98.12-19.84L98.12-19.40Q99.40-20.68 101.16-21.38Q102.92-22.08 104.92-22.08L104.92-22.08Z M189.84-22.04Q193-22.04 195.50-20.62Q198-19.20 199.42-16.68Q200.84-14.16 200.84-10.92L200.84-10.92Q200.84-7.72 199.44-5.20Q198.04-2.68 195.54-1.26Q193.04 0.16 189.84 0.16L189.84 0.16Q186.64 0.16 184.12-1.26Q181.60-2.68 180.20-5.20Q178.80-7.72 178.80-10.92L178.80-10.92Q178.80-14.16 180.20-16.68Q181.60-19.20 184.12-20.62Q186.64-22.04 189.84-22.04L189.84-22.04ZM189.84-18.44Q187.80-18.44 186.18-17.48Q184.56-16.52 183.64-14.80Q182.72-13.08 182.72-10.92L182.72-10.92Q182.72-8.76 183.64-7.06Q184.56-5.36 186.18-4.40Q187.80-3.44 189.84-3.44L189.84-3.44Q191.88-3.44 193.50-4.40Q195.12-5.36 196.02-7.06Q196.92-8.76 196.92-10.92L196.92-10.92Q196.92-13.08 196.02-14.80Q195.12-16.52 193.50-17.48Q191.88-18.44 189.84-18.44L189.84-18.44Z M216.24-4Q216.96-4 217.46-3.44Q217.96-2.88 217.96-2L217.96-2Q217.96-1.12 217.30-0.56Q216.64 0 215.60 0L215.60 0L214.88 0Q212.92 0 211.30-1.02Q209.68-2.04 208.76-3.80Q207.84-5.56 207.84-7.76L207.84-7.76L207.84-17.64L206-17.64Q205.16-17.64 204.64-18.12Q204.12-18.60 204.12-19.32L204.12-19.32Q204.12-20.12 204.64-20.60Q205.16-21.08 206-21.08L206-21.08L207.84-21.08L207.84-26.84Q207.84-27.72 208.40-28.28Q208.96-28.84 209.84-28.84L209.84-28.84Q210.72-28.84 211.28-28.28Q211.84-27.72 211.84-26.84L211.84-26.84L211.84-21.08L215.24-21.08Q216.08-21.08 216.60-20.60Q217.12-20.12 217.12-19.32L217.12-19.32Q217.12-18.60 216.60-18.12Q216.08-17.64 215.24-17.64L215.24-17.64L211.84-17.64L211.84-7.76Q211.84-6.16 212.72-5.08Q213.60-4 214.88-4L214.88-4L216.24-4Z M242.60-11.28Q242.60-10.52 242.08-10.02Q241.56-9.52 240.76-9.52L240.76-9.52L225.56-9.52Q226-6.72 228.10-5Q230.20-3.28 233.24-3.28L233.24-3.28Q234.44-3.28 235.74-3.72Q237.04-4.16 237.88-4.80L237.88-4.80Q238.44-5.24 239.20-5.24L239.20-5.24Q239.96-5.24 240.40-4.84L240.40-4.84Q241.12-4.24 241.12-3.48L241.12-3.48Q241.12-2.76 240.48-2.28L240.48-2.28Q239.12-1.20 237.10-0.52Q235.08 0.16 233.24 0.16L233.24 0.16Q229.96 0.16 227.36-1.26Q224.76-2.68 223.30-5.20Q221.84-7.72 221.84-10.92L221.84-10.92Q221.84-14.12 223.22-16.66Q224.60-19.20 227.06-20.62Q229.52-22.04 232.64-22.04L232.64-22.04Q235.72-22.04 237.96-20.68Q240.20-19.32 241.40-16.88Q242.60-14.44 242.60-11.28L242.60-11.28ZM232.64-18.60Q229.72-18.60 227.90-17Q226.08-15.40 225.60-12.72L225.60-12.72L238.92-12.72Q238.56-15.40 236.92-17Q235.28-18.60 232.64-18.60L232.64-18.60Z"/></g>
</svg>
</g><g opacity="0.2" transform="rotate(0 529.5292 640.5)">
<svg width="99.975" height="100" x="529.5292" y="640.5" version="1.1" preserveAspectRatio="none" viewBox="8 7.989999771118164 80 80.02000427246094">
  <g transform="matrix(1 0 0 1 0 0)" class="aB-kR8Dn70colors-0"><g><path d="M47.487,63.084L25.043,38.775l5.537-5.111l17.951,19.439l34.317-24.375C76.013,16.431,63.045,7.99,48.014,7.99   C25.946,7.998,8,25.942,8,48.007C8,70.065,25.946,88.01,48.002,88.01S88,70.065,88,48.007c0-4.291-0.854-8.35-2.104-12.216   L47.487,63.084z"></path></g></g>
</svg>
</g></svg>